<?xml version="1.0" encoding="utf-8"?>
<!-- Generator: Adobe Illustrator 19.1.0, SVG Export Plug-In . SVG Version: 6.00 Build 0)  -->
<svg version="1.1" id="Camada_1" xmlns="http://www.w3.org/2000/svg" xmlns:xlink="http://www.w3.org/1999/xlink" x="0px" y="0px"
	 viewBox="0 0 301 107.9" style="enable-background:new 0 0 301 107.9;" xml:space="preserve">
<style type="text/css">
	.st0{clip-path:url(#SVGID_2_);fill-rule:evenodd;clip-rule:evenodd;fill:#FFFFFF;}
</style>
<g>
	<defs>
		<path id="SVGID_1_" d="M229.8,78.9V8l20.8-8v42.6l13.7-16h23.4l-19.5,19.3l32.8,49h-25.7l-21.1-34.7l-3.6,3.7v15.1H229.8z
			 M188,78.9V26.5h19.2v9.5c1.4-3.8,3.4-6.5,6-8.3c2.6-1.8,6-2.6,10.3-2.6h1.9v20.8c-0.8-0.1-1.5-0.1-2.2-0.2c-0.7,0-1.4-0.1-2-0.1
			c-4.2,0-7.3,1-9.3,2.8c-2,1.9-3,4.9-3,8.9v21.5H188z M160.5,78.9l-1.3-5c-2.7,2.4-5.5,4.1-8.6,5.2c-3.1,1.1-6.6,1.7-10.4,1.7
			c-5.9,0-10.5-1.4-13.7-4.4c-3.2-2.9-4.8-7-4.8-12.3c0-5.2,1.6-9,4.8-11.5c3.2-2.5,9.2-4.3,18-5.4c1.1-0.2,2.6-0.3,4.5-0.5
			c6.6-0.7,9.9-2.4,9.9-5.1c0-1.5-0.6-2.6-1.8-3.3c-1.2-0.7-3.1-1-5.7-1c-2.2,0-3.8,0.4-5,1.3c-1.2,0.9-1.8,2.2-2,3.9H124
			c0.1-5.9,2.5-10.3,7.2-13.4c4.7-3,11.7-4.5,20.8-4.5c4.3,0,8.3,0.4,11.9,1.2c3.6,0.8,6.5,1.9,8.5,3.2c2.5,1.7,4.2,3.6,5.2,5.7
			c1,2.1,1.5,5.1,1.5,9V73c0,1,0.2,1.8,0.6,2.6c0.4,0.8,1,1.4,1.7,1.9v1.5H160.5z M158.6,55.5c-2,0.8-4.6,1.6-7.9,2.5
			c-5.2,1.4-7.8,3.2-7.8,5.5c0,1.5,0.5,2.6,1.5,3.5c1,0.8,2.5,1.2,4.4,1.2c3.5,0,6-0.8,7.6-2.4c1.6-1.6,2.4-4.2,2.4-7.7
			c0-0.7,0-1.3,0-1.7C158.7,56.2,158.6,55.8,158.6,55.5z M59.8,107.9V26.5h18.4v6.7c2.1-2.8,4.4-4.8,7.2-6.1c2.7-1.3,6-2,9.8-2
			c6.8,0,12.3,2.5,16.5,7.6c4.2,5.1,6.3,11.8,6.3,20.1c0,8.5-2.1,15.2-6.3,20.3c-4.2,5-9.8,7.6-16.9,7.6c-3.2,0-6.1-0.5-8.5-1.6
			c-2.4-1.1-4.5-2.8-6.3-5v25.9L59.8,107.9z M97.2,52.9c0-4.1-0.7-7.2-2.1-9.2c-1.4-2-3.5-3-6.3-3c-3.1,0-5.3,1-6.7,2.9
			c-1.4,1.9-2.1,5-2.1,9.2c0,3.9,0.7,6.9,2.2,8.9c1.4,2,3.6,3,6.4,3c2.8,0,5-1,6.4-3C96.4,59.7,97.2,56.8,97.2,52.9z M0,62.4h20.2
			c0,2.2,0.6,3.9,1.7,5c1.1,1.1,2.8,1.6,5.1,1.6c2.2,0,3.8-0.4,5-1.1c1.2-0.7,1.8-1.8,1.8-3.2c0-2.4-2.6-4.1-7.8-5.2
			c-0.4-0.1-0.8-0.2-1.1-0.2c-9.8-2.1-16.2-4.3-19.2-6.7c-3-2.4-4.5-5.9-4.5-10.6c0-5.6,2.2-9.9,6.6-12.8c4.4-2.9,10.8-4.4,19.2-4.4
			c7.8,0,13.9,1.4,18.1,4.1c4.3,2.8,6.8,6.9,7.4,12.3H33.9c-0.2-1.6-0.8-2.8-2-3.7c-1.2-0.9-2.7-1.4-4.6-1.4c-1.8,0-3.2,0.3-4.2,0.9
			c-1,0.6-1.4,1.5-1.4,2.7c0,2.1,2.4,3.6,7.1,4.6c1.2,0.2,2.2,0.4,2.8,0.6c9.5,2.2,15.7,4.5,18.5,7c2.9,2.5,4.3,6.1,4.3,10.8
			c0,6-2.3,10.5-7,13.6c-4.7,3-11.6,4.6-20.7,4.6c-8.5,0-14.9-1.5-19.4-4.6C2.9,73.2,0.4,68.6,0,62.4z"/>
	</defs>
	<use xlink:href="#SVGID_1_"  style="overflow:visible;fill:#FFFFFF;"/>
	<clipPath id="SVGID_2_">
		<use xlink:href="#SVGID_1_"  style="overflow:visible;"/>
	</clipPath>
	<path class="st0" d="M259.5-20c-4.3,0.3-9.2-0.2-13.3-1.4c-2.7-0.9-4.9-1.6-7.4-3c7.4-0.4,15.5-1.5,23.5-4.2
		c-0.5-5.1-1.1-15.7-0.2-17.7c0.6-1.2,1.7-2.2,3.7,1.2c2.2,3.7,6.6,8.3,9.1,10.7c3-1.9,5.6-4.1,7.7-6.7c1.9-2.3,5.8-8.6,6.4-11.4
		c0.1-0.7,0.2-1.4,0.3-0.1c0.5,8.4-0.2,15.6-6.4,22.1l-2,2.1c0.2,0.6,1.5,2.6,1.9,3.3c1.9,3.3,3.8,6.8,5.4,10.3
		c1.6,3.6,4.8,12,5.3,15.8L293,0.4c-1.6-2.4-5.5-6.2-7.8-8c-1.9-1.5-7.9-6-10.3-6.2c-0.3,0.5-0.8,2.4-1.1,3.1
		c-3.1,8.9-8.5,14.4-15.8,19.8c1-2.1,1.3-2.9,1.9-4.5c3.1-8.1,3.7-15.9,3-24.9L259.5-20z"/>
</g>
</svg>
